<svg width="174" height="28" xmlns="http://www.w3.org/2000/svg"><path d="M11.758 25.817V3.49h8.656v22.326h-8.657zM.139 14.996v-2.392h4.784V7.136H3.784a25.576 25.576 0 01-1.139 3.645l-2.278-.683C1.43 7.288 2.189 4.213 2.645.87l2.392.342a298.749 298.749 0 01-.683 3.531h5.809v2.392H7.315v5.468h3.645v2.392H7.315a46.053 46.053 0 01-.57 3.645l.912-.684 4.1 5.81-2.05 1.253-3.417-4.785c-.835 2.43-2.278 4.709-4.328 6.835L.139 25.475c2.886-2.81 4.442-6.303 4.67-10.48H.14zm14.124 8.657h3.76V5.883h-3.76v17.77zm11.695-7.404v-2.392h9.454V5.2c-3.949.152-6.682.228-8.201.228l-.114-2.392c8.429-.152 14.542-.418 18.339-.798l.228 2.392c-1.52.152-4.101.304-7.746.456v8.77h8.77v2.393h-8.77v8.201c.076 1.67-.797 2.468-2.62 2.392h-3.075l-.684-2.392h2.734c.911.076 1.29-.228 1.139-.911v-7.29h-9.454zm15.719-3.304l-2.05-1.366 3.53-5.354 1.937 1.367-3.417 5.353zm-10.366 0l-3.53-5.353 2.05-1.367 3.53 5.354-2.05 1.366zm31.742-.455v3.53h-2.961v-3.53h2.961zm22.06 7.518l-1.708-3.873-2.734 5.81-1.14-.457v5.354h-2.277V2.238h19.022v22.554c.076 1.443-.646 2.126-2.164 2.05h-3.076l-.683-2.392h2.506c.76.076 1.1-.152 1.025-.683v-2.05l-1.367.569-2.62-5.923-2.62 5.923-1.936-.911.797-1.823-1.025.456zM79.532 6.567l1.594-.684 2.279 5.012 2.164-5.012 1.936.912-.57 1.252 1.254-.569 1.708 3.759 2.278-5.126 1.709.797V4.63H79.532v1.937zm5.012 6.948l2.164 4.898 2.05-4.556-2.164-4.898-2.05 4.556zm6.492.342l2.848 6.378V7.365l-2.848 6.492zm-8.77-.342l-2.734-5.923v11.846l2.733-5.923zm28.21 12.758V16.135h10.707v10.137h-10.707zm-1.139-9.796l-1.025-2.165c2.278-.91 4.215-2.012 5.81-3.303a15.124 15.124 0 01-1.823-2.506c-.152.228-.342.57-.57 1.025l-.683 1.025-1.937-1.366c1.899-2.658 3.304-5.43 4.215-8.316l2.278.57a22.804 22.804 0 01-.797 2.05h6.492v2.392c-.987 2.05-2.164 3.76-3.53 5.126 1.366 1.14 3.15 2.164 5.353 3.076l-1.025 2.164c-2.354-.987-4.405-2.164-6.151-3.531-1.67 1.215-3.873 2.468-6.607 3.759zm-7.973-3.873l-.228-2.278.797-.114c.076-.152.19-.418.342-.798 1.747-4.176 2.848-7.024 3.303-8.543l2.165.684a102.787 102.787 0 01-3.304 8.543l1.709-.114c.607-1.519.987-2.544 1.139-3.076l2.278.798c-.911 2.506-2.354 5.62-4.328 9.34l3.189-.228.342 2.278-6.72.684-.229-2.278.684-.114c.76-1.367 1.594-3.038 2.506-5.012l-3.645.228zm11.39 11.504h6.037v-5.695h-6.037v5.695zm-11.39 1.253l-.228-2.05 7.86-.911.227 2.164-7.86.797zm12.302-19.136a15.326 15.326 0 002.278 3.19 17.58 17.58 0 002.733-3.532h-4.897v.114c-.076.076-.114.152-.114.228zm13.289 1.595V5.428h9.112V.87l2.392.342v4.215h8.999V7.82h-3.531c-.912 4.024-2.582 7.555-5.012 10.593 2.278 2.354 5.24 4.594 8.885 6.72l-1.253 2.165c-4.025-2.43-7.139-4.784-9.34-7.063-2.051 2.203-5.164 4.595-9.341 7.177l-1.48-2.165c3.644-2.05 6.72-4.328 9.226-6.834-2.506-3.038-4.215-6.569-5.126-10.593h-3.531zm10.251 8.657c2.127-2.506 3.531-5.392 4.215-8.657h-8.43c.76 3.265 2.165 6.15 4.215 8.657zm14.656 3.075V17.16h9.682v-1.367l3.531-2.848h-8.884v-2.278h12.643v2.278l-4.898 3.987v.228h9.227v2.392h-9.227v4.898c.152 1.747-.797 2.544-2.847 2.392h-2.62l-.57-2.392h2.62c.76.076 1.101-.152 1.025-.683v-4.215h-9.682zm18.225-8.429v-3.19h-15.263v3.19h-2.392V5.542h4.1l-1.936-3.418 1.936-1.139 2.278 3.76-1.366.797h4.784L160.29 2.01l2.05-1.139 2.165 3.76-1.595.91h2.848l2.62-4.556 2.05 1.14-1.936 3.417h3.986v5.581h-2.392z" fill="#FFF"/></svg>